<mxfile host="app.diagrams.net" modified="2023-10-19T09:13:06.105Z" agent="Mozilla/5.0 (X11; Ubuntu; Linux x86_64; rv:109.0) Gecko/20100101 Firefox/116.0" etag="LkUxXFoDIkMUK7IPrGbl" version="22.0.4" type="github">
  <diagram name="Pagina-1" id="Z2bakjayC7RO5vYZL6pr">
    <mxGraphModel dx="1941" dy="595" grid="1" gridSize="10" guides="1" tooltips="1" connect="1" arrows="1" fold="1" page="1" pageScale="1" pageWidth="827" pageHeight="1169" math="0" shadow="0">
      <root>
        <mxCell id="0" />
        <mxCell id="1" parent="0" />
        <mxCell id="stEKbrHXp1rlPh0WKWmr-2" value="FOTO" style="whiteSpace=wrap;html=1;align=center;" parent="1" vertex="1">
          <mxGeometry x="140" y="480" width="100" height="40" as="geometry" />
        </mxCell>
        <mxCell id="stEKbrHXp1rlPh0WKWmr-4" value="UTENTE" style="whiteSpace=wrap;html=1;align=center;" parent="1" vertex="1">
          <mxGeometry y="670" width="100" height="40" as="geometry" />
        </mxCell>
        <mxCell id="stEKbrHXp1rlPh0WKWmr-5" value="GALLERIA" style="whiteSpace=wrap;html=1;align=center;" parent="1" vertex="1">
          <mxGeometry x="480" y="480" width="100" height="40" as="geometry" />
        </mxCell>
        <mxCell id="stEKbrHXp1rlPh0WKWmr-6" value="SOGGETTO" style="whiteSpace=wrap;html=1;align=center;" parent="1" vertex="1">
          <mxGeometry x="290" y="280" width="100" height="40" as="geometry" />
        </mxCell>
        <mxCell id="stEKbrHXp1rlPh0WKWmr-7" value="LUOGO" style="whiteSpace=wrap;html=1;align=center;" parent="1" vertex="1">
          <mxGeometry x="140" y="280" width="100" height="40" as="geometry" />
        </mxCell>
        <mxCell id="stEKbrHXp1rlPh0WKWmr-12" style="rounded=0;orthogonalLoop=1;jettySize=auto;html=1;endArrow=none;endFill=0;" parent="1" source="stEKbrHXp1rlPh0WKWmr-9" edge="1">
          <mxGeometry relative="1" as="geometry">
            <mxPoint y="690" as="targetPoint" />
          </mxGeometry>
        </mxCell>
        <mxCell id="stEKbrHXp1rlPh0WKWmr-9" value="Nome" style="ellipse;whiteSpace=wrap;html=1;align=center;" parent="1" vertex="1">
          <mxGeometry x="-140" y="690" width="100" height="40" as="geometry" />
        </mxCell>
        <mxCell id="stEKbrHXp1rlPh0WKWmr-11" style="rounded=0;orthogonalLoop=1;jettySize=auto;html=1;entryX=0;entryY=0.5;entryDx=0;entryDy=0;endArrow=none;endFill=0;" parent="1" source="stEKbrHXp1rlPh0WKWmr-10" edge="1">
          <mxGeometry relative="1" as="geometry">
            <mxPoint y="690" as="targetPoint" />
          </mxGeometry>
        </mxCell>
        <mxCell id="stEKbrHXp1rlPh0WKWmr-10" value="&lt;u&gt;ID&lt;/u&gt;" style="ellipse;whiteSpace=wrap;html=1;align=center;" parent="1" vertex="1">
          <mxGeometry x="-140" y="650" width="100" height="40" as="geometry" />
        </mxCell>
        <mxCell id="stEKbrHXp1rlPh0WKWmr-13" value="Autore" style="shape=rhombus;perimeter=rhombusPerimeter;whiteSpace=wrap;html=1;align=center;" parent="1" vertex="1">
          <mxGeometry x="-10" y="560" width="120" height="60" as="geometry" />
        </mxCell>
        <mxCell id="stEKbrHXp1rlPh0WKWmr-16" value="" style="endArrow=none;html=1;rounded=0;exitX=0.5;exitY=0;exitDx=0;exitDy=0;entryX=0.5;entryY=1;entryDx=0;entryDy=0;" parent="1" source="stEKbrHXp1rlPh0WKWmr-13" target="stEKbrHXp1rlPh0WKWmr-2" edge="1">
          <mxGeometry relative="1" as="geometry">
            <mxPoint x="280" y="490" as="sourcePoint" />
            <mxPoint x="220" y="540" as="targetPoint" />
          </mxGeometry>
        </mxCell>
        <mxCell id="stEKbrHXp1rlPh0WKWmr-17" value="N" style="resizable=0;html=1;whiteSpace=wrap;align=right;verticalAlign=bottom;" parent="stEKbrHXp1rlPh0WKWmr-16" connectable="0" vertex="1">
          <mxGeometry x="1" relative="1" as="geometry">
            <mxPoint y="17" as="offset" />
          </mxGeometry>
        </mxCell>
        <mxCell id="stEKbrHXp1rlPh0WKWmr-18" value="" style="endArrow=none;html=1;rounded=0;exitX=0.5;exitY=1;exitDx=0;exitDy=0;entryX=0.5;entryY=0;entryDx=0;entryDy=0;" parent="1" edge="1">
          <mxGeometry relative="1" as="geometry">
            <mxPoint x="49.5" y="620" as="sourcePoint" />
            <mxPoint x="49.5" y="670" as="targetPoint" />
          </mxGeometry>
        </mxCell>
        <mxCell id="stEKbrHXp1rlPh0WKWmr-19" value="N" style="resizable=0;html=1;whiteSpace=wrap;align=right;verticalAlign=bottom;" parent="stEKbrHXp1rlPh0WKWmr-18" connectable="0" vertex="1">
          <mxGeometry x="1" relative="1" as="geometry">
            <mxPoint y="1" as="offset" />
          </mxGeometry>
        </mxCell>
        <mxCell id="stEKbrHXp1rlPh0WKWmr-20" value="" style="endArrow=none;html=1;rounded=0;exitX=0.5;exitY=0;exitDx=0;exitDy=0;entryX=0.5;entryY=1;entryDx=0;entryDy=0;" parent="1" edge="1">
          <mxGeometry relative="1" as="geometry">
            <mxPoint x="189.75" y="370" as="sourcePoint" />
            <mxPoint x="189.75" y="320" as="targetPoint" />
          </mxGeometry>
        </mxCell>
        <mxCell id="stEKbrHXp1rlPh0WKWmr-21" value="N" style="resizable=0;html=1;whiteSpace=wrap;align=right;verticalAlign=bottom;" parent="stEKbrHXp1rlPh0WKWmr-20" connectable="0" vertex="1">
          <mxGeometry x="1" relative="1" as="geometry">
            <mxPoint y="17" as="offset" />
          </mxGeometry>
        </mxCell>
        <mxCell id="stEKbrHXp1rlPh0WKWmr-22" value="" style="endArrow=none;html=1;rounded=0;exitX=0.5;exitY=1;exitDx=0;exitDy=0;entryX=0.5;entryY=0;entryDx=0;entryDy=0;" parent="1" edge="1">
          <mxGeometry relative="1" as="geometry">
            <mxPoint x="189.25" y="430" as="sourcePoint" />
            <mxPoint x="189.25" y="480" as="targetPoint" />
          </mxGeometry>
        </mxCell>
        <mxCell id="stEKbrHXp1rlPh0WKWmr-23" value="N" style="resizable=0;html=1;whiteSpace=wrap;align=right;verticalAlign=bottom;" parent="stEKbrHXp1rlPh0WKWmr-22" connectable="0" vertex="1">
          <mxGeometry x="1" relative="1" as="geometry">
            <mxPoint y="1" as="offset" />
          </mxGeometry>
        </mxCell>
        <mxCell id="stEKbrHXp1rlPh0WKWmr-24" value="Scattata_in" style="shape=rhombus;perimeter=rhombusPerimeter;whiteSpace=wrap;html=1;align=center;" parent="1" vertex="1">
          <mxGeometry x="130" y="370" width="120" height="60" as="geometry" />
        </mxCell>
        <mxCell id="stEKbrHXp1rlPh0WKWmr-31" style="rounded=0;orthogonalLoop=1;jettySize=auto;html=1;entryX=0;entryY=0.5;entryDx=0;entryDy=0;endArrow=none;endFill=0;" parent="1" source="stEKbrHXp1rlPh0WKWmr-25" target="stEKbrHXp1rlPh0WKWmr-7" edge="1">
          <mxGeometry relative="1" as="geometry" />
        </mxCell>
        <mxCell id="stEKbrHXp1rlPh0WKWmr-25" value="&lt;u&gt;Latitudine&lt;/u&gt;" style="ellipse;whiteSpace=wrap;html=1;align=center;" parent="1" vertex="1">
          <mxGeometry y="240" width="100" height="40" as="geometry" />
        </mxCell>
        <mxCell id="stEKbrHXp1rlPh0WKWmr-29" style="rounded=0;orthogonalLoop=1;jettySize=auto;html=1;entryX=0;entryY=0.5;entryDx=0;entryDy=0;endArrow=none;endFill=0;" parent="1" source="stEKbrHXp1rlPh0WKWmr-26" target="stEKbrHXp1rlPh0WKWmr-7" edge="1">
          <mxGeometry relative="1" as="geometry" />
        </mxCell>
        <mxCell id="stEKbrHXp1rlPh0WKWmr-26" value="&lt;u&gt;Latitudine&lt;/u&gt;" style="ellipse;whiteSpace=wrap;html=1;align=center;" parent="1" vertex="1">
          <mxGeometry y="280" width="100" height="40" as="geometry" />
        </mxCell>
        <mxCell id="stEKbrHXp1rlPh0WKWmr-28" style="rounded=0;orthogonalLoop=1;jettySize=auto;html=1;entryX=0;entryY=0.5;entryDx=0;entryDy=0;endArrow=none;endFill=0;" parent="1" source="stEKbrHXp1rlPh0WKWmr-27" target="stEKbrHXp1rlPh0WKWmr-7" edge="1">
          <mxGeometry relative="1" as="geometry" />
        </mxCell>
        <mxCell id="stEKbrHXp1rlPh0WKWmr-27" value="Nome" style="ellipse;whiteSpace=wrap;html=1;align=center;" parent="1" vertex="1">
          <mxGeometry y="320" width="100" height="40" as="geometry" />
        </mxCell>
        <mxCell id="stEKbrHXp1rlPh0WKWmr-33" value="Scattata_in" style="shape=rhombus;perimeter=rhombusPerimeter;whiteSpace=wrap;html=1;align=center;" parent="1" vertex="1">
          <mxGeometry x="280" y="370" width="120" height="60" as="geometry" />
        </mxCell>
        <mxCell id="stEKbrHXp1rlPh0WKWmr-34" value="" style="endArrow=none;html=1;rounded=0;exitX=0;exitY=1;exitDx=0;exitDy=0;entryX=0.75;entryY=0;entryDx=0;entryDy=0;" parent="1" source="stEKbrHXp1rlPh0WKWmr-33" target="stEKbrHXp1rlPh0WKWmr-2" edge="1">
          <mxGeometry relative="1" as="geometry">
            <mxPoint x="200" y="580" as="sourcePoint" />
            <mxPoint x="200" y="530" as="targetPoint" />
          </mxGeometry>
        </mxCell>
        <mxCell id="stEKbrHXp1rlPh0WKWmr-35" value="N" style="resizable=0;html=1;whiteSpace=wrap;align=right;verticalAlign=bottom;" parent="stEKbrHXp1rlPh0WKWmr-34" connectable="0" vertex="1">
          <mxGeometry x="1" relative="1" as="geometry">
            <mxPoint x="2" y="2" as="offset" />
          </mxGeometry>
        </mxCell>
        <mxCell id="stEKbrHXp1rlPh0WKWmr-36" value="" style="endArrow=none;html=1;rounded=0;exitX=0.5;exitY=0;exitDx=0;exitDy=0;entryX=0.5;entryY=1;entryDx=0;entryDy=0;" parent="1" edge="1">
          <mxGeometry relative="1" as="geometry">
            <mxPoint x="339.5" y="370" as="sourcePoint" />
            <mxPoint x="339.5" y="320" as="targetPoint" />
          </mxGeometry>
        </mxCell>
        <mxCell id="stEKbrHXp1rlPh0WKWmr-37" value="N" style="resizable=0;html=1;whiteSpace=wrap;align=right;verticalAlign=bottom;" parent="stEKbrHXp1rlPh0WKWmr-36" connectable="0" vertex="1">
          <mxGeometry x="1" relative="1" as="geometry">
            <mxPoint y="17" as="offset" />
          </mxGeometry>
        </mxCell>
        <mxCell id="stEKbrHXp1rlPh0WKWmr-42" style="rounded=0;orthogonalLoop=1;jettySize=auto;html=1;entryX=0.5;entryY=0;entryDx=0;entryDy=0;endArrow=none;endFill=0;" parent="1" target="stEKbrHXp1rlPh0WKWmr-6" edge="1">
          <mxGeometry relative="1" as="geometry">
            <mxPoint x="374.1886116991582" y="238.97366596101028" as="sourcePoint" />
          </mxGeometry>
        </mxCell>
        <mxCell id="stEKbrHXp1rlPh0WKWmr-40" style="rounded=0;orthogonalLoop=1;jettySize=auto;html=1;entryX=0.5;entryY=0;entryDx=0;entryDy=0;endArrow=none;endFill=0;" parent="1" target="stEKbrHXp1rlPh0WKWmr-6" edge="1">
          <mxGeometry relative="1" as="geometry">
            <mxPoint x="305.8113883008418" y="238.97366596101028" as="sourcePoint" />
          </mxGeometry>
        </mxCell>
        <mxCell id="stEKbrHXp1rlPh0WKWmr-43" value="SLIDESHOW" style="whiteSpace=wrap;html=1;align=center;" parent="1" vertex="1">
          <mxGeometry x="330" y="645" width="100" height="40" as="geometry" />
        </mxCell>
        <mxCell id="stEKbrHXp1rlPh0WKWmr-44" value="Contenere" style="shape=rhombus;perimeter=rhombusPerimeter;whiteSpace=wrap;html=1;align=center;" parent="1" vertex="1">
          <mxGeometry x="300" y="470" width="120" height="60" as="geometry" />
        </mxCell>
        <mxCell id="stEKbrHXp1rlPh0WKWmr-45" value="Scelte" style="shape=rhombus;perimeter=rhombusPerimeter;whiteSpace=wrap;html=1;align=center;" parent="1" vertex="1">
          <mxGeometry x="160" y="570" width="120" height="60" as="geometry" />
        </mxCell>
        <mxCell id="stEKbrHXp1rlPh0WKWmr-46" value="" style="endArrow=none;html=1;rounded=0;entryX=0.75;entryY=1;entryDx=0;entryDy=0;exitX=0.5;exitY=0;exitDx=0;exitDy=0;" parent="1" source="stEKbrHXp1rlPh0WKWmr-45" target="stEKbrHXp1rlPh0WKWmr-2" edge="1">
          <mxGeometry relative="1" as="geometry">
            <mxPoint x="140" y="589.5" as="sourcePoint" />
            <mxPoint x="300" y="589.5" as="targetPoint" />
          </mxGeometry>
        </mxCell>
        <mxCell id="stEKbrHXp1rlPh0WKWmr-47" value="N" style="resizable=0;html=1;whiteSpace=wrap;align=right;verticalAlign=bottom;" parent="stEKbrHXp1rlPh0WKWmr-46" connectable="0" vertex="1">
          <mxGeometry x="1" relative="1" as="geometry">
            <mxPoint x="12" y="19" as="offset" />
          </mxGeometry>
        </mxCell>
        <mxCell id="stEKbrHXp1rlPh0WKWmr-48" value="" style="endArrow=none;html=1;rounded=0;exitX=1;exitY=0.5;exitDx=0;exitDy=0;" parent="1" source="stEKbrHXp1rlPh0WKWmr-44" edge="1">
          <mxGeometry relative="1" as="geometry">
            <mxPoint x="320" y="500" as="sourcePoint" />
            <mxPoint x="480" y="500" as="targetPoint" />
          </mxGeometry>
        </mxCell>
        <mxCell id="stEKbrHXp1rlPh0WKWmr-49" value="N" style="resizable=0;html=1;whiteSpace=wrap;align=right;verticalAlign=bottom;" parent="stEKbrHXp1rlPh0WKWmr-48" connectable="0" vertex="1">
          <mxGeometry x="1" relative="1" as="geometry" />
        </mxCell>
        <mxCell id="stEKbrHXp1rlPh0WKWmr-50" value="" style="endArrow=none;html=1;rounded=0;" parent="1" edge="1">
          <mxGeometry relative="1" as="geometry">
            <mxPoint x="300" y="500" as="sourcePoint" />
            <mxPoint x="240" y="500" as="targetPoint" />
          </mxGeometry>
        </mxCell>
        <mxCell id="stEKbrHXp1rlPh0WKWmr-51" value="N" style="resizable=0;html=1;whiteSpace=wrap;align=right;verticalAlign=bottom;" parent="stEKbrHXp1rlPh0WKWmr-50" connectable="0" vertex="1">
          <mxGeometry x="1" relative="1" as="geometry">
            <mxPoint x="14" y="2" as="offset" />
          </mxGeometry>
        </mxCell>
        <mxCell id="stEKbrHXp1rlPh0WKWmr-52" value="" style="endArrow=none;html=1;rounded=0;exitX=1;exitY=0;exitDx=0;exitDy=0;entryX=0.5;entryY=1;entryDx=0;entryDy=0;" parent="1" source="stEKbrHXp1rlPh0WKWmr-62" target="stEKbrHXp1rlPh0WKWmr-5" edge="1">
          <mxGeometry relative="1" as="geometry">
            <mxPoint x="470" y="584" as="sourcePoint" />
            <mxPoint x="630" y="584" as="targetPoint" />
          </mxGeometry>
        </mxCell>
        <mxCell id="stEKbrHXp1rlPh0WKWmr-53" value="N" style="resizable=0;html=1;whiteSpace=wrap;align=right;verticalAlign=bottom;" parent="stEKbrHXp1rlPh0WKWmr-52" connectable="0" vertex="1">
          <mxGeometry x="1" relative="1" as="geometry">
            <mxPoint x="14" y="19" as="offset" />
          </mxGeometry>
        </mxCell>
        <mxCell id="stEKbrHXp1rlPh0WKWmr-54" value="" style="endArrow=none;html=1;rounded=0;exitX=0;exitY=1;exitDx=0;exitDy=0;entryX=0.75;entryY=0;entryDx=0;entryDy=0;" parent="1" source="stEKbrHXp1rlPh0WKWmr-62" target="stEKbrHXp1rlPh0WKWmr-43" edge="1">
          <mxGeometry relative="1" as="geometry">
            <mxPoint x="340" y="710" as="sourcePoint" />
            <mxPoint x="500" y="710" as="targetPoint" />
          </mxGeometry>
        </mxCell>
        <mxCell id="stEKbrHXp1rlPh0WKWmr-55" value="N" style="resizable=0;html=1;whiteSpace=wrap;align=right;verticalAlign=bottom;" parent="stEKbrHXp1rlPh0WKWmr-54" connectable="0" vertex="1">
          <mxGeometry x="1" relative="1" as="geometry">
            <mxPoint x="5" y="2" as="offset" />
          </mxGeometry>
        </mxCell>
        <mxCell id="stEKbrHXp1rlPh0WKWmr-56" value="" style="endArrow=none;html=1;rounded=0;entryX=0;entryY=0.5;entryDx=0;entryDy=0;exitX=1;exitY=0.5;exitDx=0;exitDy=0;" parent="1" source="stEKbrHXp1rlPh0WKWmr-63" target="stEKbrHXp1rlPh0WKWmr-43" edge="1">
          <mxGeometry relative="1" as="geometry">
            <mxPoint x="180" y="790" as="sourcePoint" />
            <mxPoint x="340" y="790" as="targetPoint" />
          </mxGeometry>
        </mxCell>
        <mxCell id="stEKbrHXp1rlPh0WKWmr-57" value="N" style="resizable=0;html=1;whiteSpace=wrap;align=right;verticalAlign=bottom;" parent="stEKbrHXp1rlPh0WKWmr-56" connectable="0" vertex="1">
          <mxGeometry x="1" relative="1" as="geometry" />
        </mxCell>
        <mxCell id="stEKbrHXp1rlPh0WKWmr-58" value="" style="endArrow=none;html=1;rounded=0;entryX=1;entryY=0.5;entryDx=0;entryDy=0;exitX=0;exitY=0.5;exitDx=0;exitDy=0;" parent="1" source="stEKbrHXp1rlPh0WKWmr-63" target="stEKbrHXp1rlPh0WKWmr-4" edge="1">
          <mxGeometry relative="1" as="geometry">
            <mxPoint x="630" y="590" as="sourcePoint" />
            <mxPoint x="790" y="590" as="targetPoint" />
          </mxGeometry>
        </mxCell>
        <mxCell id="stEKbrHXp1rlPh0WKWmr-59" value="N" style="resizable=0;html=1;whiteSpace=wrap;align=right;verticalAlign=bottom;" parent="stEKbrHXp1rlPh0WKWmr-58" connectable="0" vertex="1">
          <mxGeometry x="1" relative="1" as="geometry">
            <mxPoint x="12" y="4" as="offset" />
          </mxGeometry>
        </mxCell>
        <mxCell id="stEKbrHXp1rlPh0WKWmr-60" value="" style="endArrow=none;html=1;rounded=0;exitX=0.5;exitY=1;exitDx=0;exitDy=0;entryX=0.25;entryY=0;entryDx=0;entryDy=0;" parent="1" target="stEKbrHXp1rlPh0WKWmr-43" edge="1">
          <mxGeometry relative="1" as="geometry">
            <mxPoint x="219.5" y="630" as="sourcePoint" />
            <mxPoint x="219.5" y="680" as="targetPoint" />
          </mxGeometry>
        </mxCell>
        <mxCell id="stEKbrHXp1rlPh0WKWmr-61" value="N" style="resizable=0;html=1;whiteSpace=wrap;align=right;verticalAlign=bottom;" parent="stEKbrHXp1rlPh0WKWmr-60" connectable="0" vertex="1">
          <mxGeometry x="1" relative="1" as="geometry">
            <mxPoint x="6" y="-1" as="offset" />
          </mxGeometry>
        </mxCell>
        <mxCell id="stEKbrHXp1rlPh0WKWmr-62" value="Includere" style="shape=rhombus;perimeter=rhombusPerimeter;whiteSpace=wrap;html=1;align=center;" parent="1" vertex="1">
          <mxGeometry x="450" y="585" width="120" height="60" as="geometry" />
        </mxCell>
        <mxCell id="stEKbrHXp1rlPh0WKWmr-63" value="Creazione" style="shape=rhombus;perimeter=rhombusPerimeter;whiteSpace=wrap;html=1;align=center;" parent="1" vertex="1">
          <mxGeometry x="160" y="670" width="120" height="60" as="geometry" />
        </mxCell>
        <mxCell id="stEKbrHXp1rlPh0WKWmr-64" value="Partecipazione" style="shape=rhombus;perimeter=rhombusPerimeter;whiteSpace=wrap;html=1;align=center;" parent="1" vertex="1">
          <mxGeometry x="330" y="770" width="120" height="60" as="geometry" />
        </mxCell>
        <mxCell id="stEKbrHXp1rlPh0WKWmr-68" value="" style="endArrow=none;html=1;rounded=0;entryX=1;entryY=0.5;entryDx=0;entryDy=0;exitX=1;exitY=0.5;exitDx=0;exitDy=0;" parent="1" source="stEKbrHXp1rlPh0WKWmr-64" target="stEKbrHXp1rlPh0WKWmr-5" edge="1">
          <mxGeometry relative="1" as="geometry">
            <mxPoint x="450" y="789.5" as="sourcePoint" />
            <mxPoint x="790" y="790" as="targetPoint" />
            <Array as="points">
              <mxPoint x="720" y="800" />
              <mxPoint x="720" y="500" />
            </Array>
          </mxGeometry>
        </mxCell>
        <mxCell id="stEKbrHXp1rlPh0WKWmr-69" value="N" style="resizable=0;html=1;whiteSpace=wrap;align=right;verticalAlign=bottom;" parent="stEKbrHXp1rlPh0WKWmr-68" connectable="0" vertex="1">
          <mxGeometry x="1" relative="1" as="geometry">
            <mxPoint x="12" y="1" as="offset" />
          </mxGeometry>
        </mxCell>
        <mxCell id="stEKbrHXp1rlPh0WKWmr-70" value="" style="endArrow=none;html=1;rounded=0;entryX=0.5;entryY=1;entryDx=0;entryDy=0;exitX=0;exitY=0.5;exitDx=0;exitDy=0;" parent="1" source="stEKbrHXp1rlPh0WKWmr-64" target="stEKbrHXp1rlPh0WKWmr-4" edge="1">
          <mxGeometry relative="1" as="geometry">
            <mxPoint x="150" y="805" as="sourcePoint" />
            <mxPoint x="90" y="795" as="targetPoint" />
            <Array as="points">
              <mxPoint x="50" y="800" />
            </Array>
          </mxGeometry>
        </mxCell>
        <mxCell id="stEKbrHXp1rlPh0WKWmr-71" value="N" style="resizable=0;html=1;whiteSpace=wrap;align=right;verticalAlign=bottom;" parent="stEKbrHXp1rlPh0WKWmr-70" connectable="0" vertex="1">
          <mxGeometry x="1" relative="1" as="geometry">
            <mxPoint y="18" as="offset" />
          </mxGeometry>
        </mxCell>
        <mxCell id="stEKbrHXp1rlPh0WKWmr-74" value="&lt;span style=&quot;border-bottom: 1px dotted&quot;&gt;Nome&lt;/span&gt;" style="ellipse;whiteSpace=wrap;html=1;align=center;" parent="1" vertex="1">
          <mxGeometry x="240" y="200" width="100" height="40" as="geometry" />
        </mxCell>
        <mxCell id="stEKbrHXp1rlPh0WKWmr-75" value="Categoria" style="ellipse;whiteSpace=wrap;html=1;align=center;" parent="1" vertex="1">
          <mxGeometry x="340" y="200" width="100" height="40" as="geometry" />
        </mxCell>
        <mxCell id="stEKbrHXp1rlPh0WKWmr-82" style="rounded=0;orthogonalLoop=1;jettySize=auto;html=1;entryX=0.5;entryY=0;entryDx=0;entryDy=0;endArrow=none;endFill=0;" parent="1" source="stEKbrHXp1rlPh0WKWmr-77" target="stEKbrHXp1rlPh0WKWmr-5" edge="1">
          <mxGeometry relative="1" as="geometry" />
        </mxCell>
        <mxCell id="stEKbrHXp1rlPh0WKWmr-77" value="&lt;u&gt;ID&lt;/u&gt;" style="ellipse;whiteSpace=wrap;html=1;align=center;" parent="1" vertex="1">
          <mxGeometry x="410" y="400" width="100" height="40" as="geometry" />
        </mxCell>
        <mxCell id="stEKbrHXp1rlPh0WKWmr-83" style="rounded=0;orthogonalLoop=1;jettySize=auto;html=1;entryX=0.5;entryY=0;entryDx=0;entryDy=0;endArrow=none;endFill=0;" parent="1" source="stEKbrHXp1rlPh0WKWmr-78" target="stEKbrHXp1rlPh0WKWmr-5" edge="1">
          <mxGeometry relative="1" as="geometry">
            <mxPoint x="560" y="440" as="targetPoint" />
          </mxGeometry>
        </mxCell>
        <mxCell id="stEKbrHXp1rlPh0WKWmr-78" value="Condivisione" style="ellipse;whiteSpace=wrap;html=1;align=center;" parent="1" vertex="1">
          <mxGeometry x="470" y="360" width="100" height="40" as="geometry" />
        </mxCell>
        <mxCell id="stEKbrHXp1rlPh0WKWmr-84" style="rounded=0;orthogonalLoop=1;jettySize=auto;html=1;exitX=0.5;exitY=1;exitDx=0;exitDy=0;entryX=0.5;entryY=0;entryDx=0;entryDy=0;endArrow=none;endFill=0;" parent="1" source="stEKbrHXp1rlPh0WKWmr-80" target="stEKbrHXp1rlPh0WKWmr-5" edge="1">
          <mxGeometry relative="1" as="geometry" />
        </mxCell>
        <mxCell id="stEKbrHXp1rlPh0WKWmr-80" value="Num_foto" style="ellipse;whiteSpace=wrap;html=1;align=center;" parent="1" vertex="1">
          <mxGeometry x="570" y="360" width="100" height="40" as="geometry" />
        </mxCell>
        <mxCell id="stEKbrHXp1rlPh0WKWmr-85" style="rounded=0;orthogonalLoop=1;jettySize=auto;html=1;entryX=0.5;entryY=0;entryDx=0;entryDy=0;endArrow=none;endFill=0;" parent="1" source="stEKbrHXp1rlPh0WKWmr-81" target="stEKbrHXp1rlPh0WKWmr-5" edge="1">
          <mxGeometry relative="1" as="geometry" />
        </mxCell>
        <mxCell id="stEKbrHXp1rlPh0WKWmr-81" value="Num_partecipanti" style="ellipse;whiteSpace=wrap;html=1;align=center;" parent="1" vertex="1">
          <mxGeometry x="620" y="400" width="100" height="40" as="geometry" />
        </mxCell>
      </root>
    </mxGraphModel>
  </diagram>
</mxfile>
